<svg xmlns="http://www.w3.org/2000/svg" viewBox="0 0 1280 900" width="1280" height="900" font-family="-apple-system, BlinkMacSystemFont, 'Apple SD Gothic Neo', 'Segoe UI', 'Noto Sans KR', 'Malgun Gothic', sans-serif">
  <defs>
    <style>
      .panel   { fill: #f6f8fa; stroke: #d0d7de; stroke-width: 1; }
      .box     { fill: #ffffff; stroke: #8c959f; stroke-width: 1.2; }
      .player  { font-size: 11.5px; font-weight: 700; fill: #57606a; letter-spacing: .06em; }
      .h       { font-size: 14px; font-weight: 600; fill: #1f2328; }
      .sub     { font-size: 11px; fill: #57606a; }
      .note    { font-size: 11.5px; fill: #24292f; }
      .arrow   { stroke: #424a53; stroke-width: 2.2; fill: none; }
      .arrow-s { stroke: #8c959f; stroke-width: 1.6; fill: none; stroke-dasharray: 5 4; }
      .mono    { font-family: 'SF Mono', SFMono-Regular, ui-monospace, Menlo, Consolas, monospace; font-size: 10px; fill: #57606a; }
      .ico     { fill: none; stroke: #57606a; stroke-width: 1.6; stroke-linecap: round; stroke-linejoin: round; }
    </style>

    <marker id="a" markerWidth="10" markerHeight="10" refX="8" refY="5" orient="auto">
      <path d="M0 1.2 L8.5 5 L0 8.8 Z" fill="#424a53"/>
    </marker>
    <marker id="as" markerWidth="9" markerHeight="9" refX="7.5" refY="4.5" orient="auto">
      <path d="M0 1 L7.5 4.5 L0 8 Z" fill="#8c959f"/>
    </marker>

    <g id="ic-browser" class="ico"><rect x="2" y="3.5" width="16" height="13" rx="2"/><path d="M2 7.5h16M5 11h6M5 13.5h8"/></g>
    <g id="ic-nodes"   class="ico"><rect x="7" y="2" width="6" height="4" rx="1"/><rect x="1.5" y="14" width="6" height="4" rx="1"/><rect x="12.5" y="14" width="6" height="4" rx="1"/><path d="M10 6v4M10 10H4.5v4M10 10h5.5v4"/></g>
    <g id="ic-pulse"   class="ico"><path d="M1.5 10h3l2-5 3 10 2-6 1.5 1h5"/></g>
    <g id="ic-doc"     class="ico"><path d="M4 2h7l4 4v12H4z"/><path d="M11 2v4h4"/><path d="M6.5 10h7M6.5 13h5"/></g>
    <g id="ic-shield"  class="ico"><path d="M10 2l6.5 2.4v4.8c0 4-2.7 7.4-6.5 8.4C6.2 16.6 3.5 13.2 3.5 9.2V4.4z"/><circle cx="10" cy="8.5" r="1.6"/></g>
    <g id="ic-book"    class="ico"><path d="M2.5 3.5h5a2.5 2.5 0 012.5 2.5v11a2.2 2.2 0 00-2.2-2.2H2.5z"/><path d="M17.5 3.5h-5A2.5 2.5 0 0010 6v11a2.2 2.2 0 012.2-2.2h5.3z"/></g>
    <g id="ic-flow"    class="ico"><circle cx="4" cy="5" r="2.2"/><circle cx="4" cy="15" r="2.2"/><circle cx="16" cy="10" r="2.2"/><path d="M6.1 6L13.9 9M6.1 14L13.9 11"/></g>
    <g id="ic-org"     class="ico"><circle cx="7.5" cy="6.5" r="2.6"/><path d="M2.5 17c0-2.8 2.2-5 5-5s5 2.2 5 5"/><path d="M13.5 4.6a2.6 2.6 0 010 4M15.5 12.6A5 5 0 0117.5 17"/></g>
    <g id="ic-scan"    class="ico"><path d="M2.5 7V4.5a2 2 0 012-2H7M17.5 7V4.5a2 2 0 00-2-2H13M2.5 13v2.5a2 2 0 002 2H7M17.5 13v2.5a2 2 0 01-2 2H13"/><path d="M2.5 10h15"/></g>
    <g id="ic-fx"      class="ico"><path d="M10 2l1.9 4.7L16.6 8.6 11.9 10.5 10 15.2 8.1 10.5 3.4 8.6 8.1 6.7z"/><path d="M15.5 13.5l.7 1.7 1.7.7-1.7.7-.7 1.7-.7-1.7-1.7-.7 1.7-.7z"/></g>
    <g id="ic-gear"    class="ico"><circle cx="10" cy="10" r="2.8"/><path d="M10 2.2v2.6M10 15.2v2.6M17.8 10h-2.6M4.8 10H2.2M15.5 4.5l-1.8 1.8M6.3 13.7l-1.8 1.8M15.5 15.5l-1.8-1.8M6.3 6.3L4.5 4.5"/></g>
    <g id="ic-cube"    class="ico"><path d="M10 2l7 4v8l-7 4-7-4V6z"/><path d="M3 6l7 4 7-4M10 10v8"/></g>
    <g id="ic-queue"   class="ico"><rect x="2" y="3.5" width="11" height="3.5" rx="1"/><rect x="2" y="8.2" width="11" height="3.5" rx="1"/><rect x="2" y="13" width="11" height="3.5" rx="1"/><path d="M15.5 6v8M15.5 14l-1.7-1.9M15.5 14l1.7-1.9"/></g>
    <g id="ic-db"      class="ico"><ellipse cx="10" cy="5" rx="6.5" ry="2.8"/><path d="M3.5 5v10c0 1.5 2.9 2.8 6.5 2.8s6.5-1.3 6.5-2.8V5"/><path d="M3.5 10c0 1.5 2.9 2.8 6.5 2.8s6.5-1.3 6.5-2.8"/></g>
    <g id="ic-bolt"    class="ico"><path d="M11.5 2L4.5 11h4.5l-1 7 7-9h-4.8z"/></g>
    <g id="ic-stream"  class="ico"><circle cx="4.5" cy="10" r="2"/><path d="M6.5 10h3.5M11.5 6.8h6M11.5 10h6M11.5 13.2h6"/><path d="M10 10l1.5-3.2M10 10l1.5 3.2"/></g>
    <g id="ic-chaos"   class="ico"><path d="M2 7h5l-1.7 3h3.4l-1.7 3h5"/><path d="M15 4.5l2.5 2.5L15 9.5M15 11l2.5 2.5L15 16"/></g>
    <g id="ic-trace"   class="ico"><path d="M2.5 3v14h15"/><rect x="5" y="5" width="9" height="2.4" rx="1"/><rect x="7" y="9" width="6.5" height="2.4" rx="1"/><rect x="9" y="13" width="4.5" height="2.4" rx="1"/></g>
  </defs>

  <rect width="1280" height="900" fill="#ffffff"/>

  <text x="40" y="42" font-size="20" font-weight="700" fill="#1f2328">SysDrill 시스템 아키텍처</text>
  <text x="40" y="64" class="sub">Kotlin · Spring Boot 4 모듈러 모놀리스 — 동기 API / 비동기 워커 / 2계층 시뮬레이션 엔진</text>

  <!-- ══ 1. CLIENT ══════════════════════════════════════════════════════ -->
  <rect class="panel" x="40" y="86" width="1200" height="106" rx="6"/>
  <text x="56" y="108" class="player">클라이언트</text>
  <text x="152" y="108" class="sub">Next.js 16 · React 19 — 페이지 30</text>

  <rect class="box" x="56" y="118" width="278" height="58" rx="5"/>
  <g transform="translate(70,136)"><use href="#ic-browser"/></g>
  <text x="98" y="143" class="h">Design Workspace</text><text x="98" y="160" class="sub">설계 답안 작성 · 제출</text>

  <rect class="box" x="348" y="118" width="278" height="58" rx="5"/>
  <g transform="translate(362,136)"><use href="#ic-nodes"/></g>
  <text x="390" y="143" class="h">Architecture Canvas</text><text x="390" y="160" class="sub">노드 config → 시뮬레이션 입력</text>

  <rect class="box" x="640" y="118" width="278" height="58" rx="5"/>
  <g transform="translate(654,136)"><use href="#ic-pulse"/></g>
  <text x="682" y="143" class="h">Wargame Live</text><text x="682" y="160" class="sub">지표 폴링 · 대응 액션</text>

  <rect class="box" x="932" y="118" width="278" height="58" rx="5"/>
  <g transform="translate(946,136)"><use href="#ic-doc"/></g>
  <text x="974" y="143" class="h">Report · Replay</text><text x="974" y="160" class="sub">단계별 점수 · 타임라인</text>

  <path class="arrow" d="M640 192 V236" marker-end="url(#a)"/>
  <circle cx="601" cy="214" r="9" fill="#424a53"/><text x="601" y="218" font-size="11" font-weight="700" fill="#fff" text-anchor="middle">1</text>
  <rect x="614" y="205" width="90" height="18" fill="#fff"/>
  <text x="618" y="218" class="note">REST + JWT</text>

  <!-- ══ 2. BACKEND ═════════════════════════════════════════════════════ -->
  <rect class="panel" x="40" y="244" width="1200" height="172" rx="6"/>
  <text x="56" y="266" class="player">백엔드 API</text>
  <text x="152" y="266" class="sub">패키지 19개(도메인 17) · REST 엔드포인트 67 — 상태 전이와 트랜잭션 경계를 담당</text>

  <rect class="box" x="56" y="278" width="224" height="56" rx="5"/>
  <g transform="translate(68,294)"><use href="#ic-shield"/></g>
  <text x="94" y="301" class="h">auth · identity</text><text x="94" y="318" class="sub">JWT · OAuth · RBAC</text>

  <rect class="box" x="292" y="278" width="224" height="56" rx="5"/>
  <g transform="translate(304,294)"><use href="#ic-book"/></g>
  <text x="330" y="301" class="h">content · scenario</text><text x="330" y="318" class="sub">시나리오 7 도메인</text>

  <rect class="box" x="528" y="278" width="224" height="56" rx="5"/>
  <g transform="translate(540,294)"><use href="#ic-flow"/></g>
  <text x="566" y="301" class="h">session · submission</text><text x="566" y="318" class="sub">7상태 상태 머신</text>

  <rect class="box" x="764" y="278" width="224" height="56" rx="5"/>
  <g transform="translate(776,294)"><use href="#ic-org"/></g>
  <text x="802" y="301" class="h">organization</text><text x="802" y="318" class="sub">멀티테넌시 · 감사 로그</text>

  <rect class="box" x="1000" y="278" width="224" height="56" rx="5"/>
  <g transform="translate(1012,294)"><use href="#ic-scan"/></g>
  <text x="1038" y="301" class="h">architecture</text><text x="1038" y="318" class="sub">OpenAPI 린터</text>

  <rect class="box" x="56" y="344" width="224" height="56" rx="5"/>
  <g transform="translate(68,360)"><use href="#ic-fx"/></g>
  <text x="94" y="367" class="h">evaluation</text><text x="94" y="384" class="sub">Rule + LLM 평가</text>

  <rect class="box" x="292" y="344" width="224" height="56" rx="5"/>
  <g transform="translate(304,360)"><use href="#ic-cube"/></g>
  <text x="330" y="367" class="h">build</text><text x="330" y="384" class="sub">과제 7종 채점</text>

  <rect class="box" x="528" y="344" width="224" height="56" rx="5"/>
  <g transform="translate(540,360)"><use href="#ic-gear"/></g>
  <text x="566" y="367" class="h">simulation</text><text x="566" y="384" class="sub">엔진 선택 · 토폴로지</text>

  <rect class="box" x="764" y="344" width="224" height="56" rx="5"/>
  <g transform="translate(776,360)"><use href="#ic-doc"/></g>
  <text x="802" y="367" class="h">reporting · certification</text><text x="802" y="384" class="sub">리포트 · 포스트모템</text>

  <rect class="box" x="1000" y="344" width="224" height="56" rx="5"/>
  <g transform="translate(1012,360)"><use href="#ic-fx"/></g>
  <text x="1038" y="367" class="h">mentor · mail · admin</text><text x="1038" y="384" class="sub">AI 힌트 · 메일</text>

  <path class="arrow" d="M240 416 V474" marker-end="url(#a)"/>
  <circle cx="201" cy="445" r="9" fill="#424a53"/><text x="201" y="449" font-size="11" font-weight="700" fill="#fff" text-anchor="middle">2</text>
  <rect x="214" y="436" width="116" height="18" fill="#fff"/>
  <text x="218" y="449" class="note">커밋 후 enqueue</text>

  <path class="arrow" d="M900 416 V474" marker-end="url(#a)"/>
  <circle cx="861" cy="445" r="9" fill="#424a53"/><text x="861" y="449" font-size="11" font-weight="700" fill="#fff" text-anchor="middle">3</text>
  <rect x="874" y="436" width="188" height="18" fill="#fff"/>
  <text x="878" y="449" class="note">computeState / applyAction</text>

  <!-- ══ 3a. ASYNC WORKERS ══════════════════════════════════════════════ -->
  <rect class="panel" x="40" y="482" width="580" height="180" rx="6"/>
  <text x="56" y="504" class="player">비동기 워커</text>
  <text x="152" y="504" class="sub">Redis 큐 기반 · 재시도 3회 후 DLQ</text>

  <rect class="box" x="56" y="516" width="150" height="128" rx="5"/>
  <g transform="translate(68,532)"><use href="#ic-queue"/></g>
  <text x="94" y="539" class="h">Redis Queue</text>
  <text x="68" y="566" class="mono">evaluation:jobs</text>
  <text x="68" y="582" class="mono">build:jobs</text>
  <text x="68" y="598" class="mono">*:dead-letter</text>
  <text x="68" y="622" class="sub">RPUSH / LPOP</text>

  <path class="arrow" d="M206 552 H236" marker-end="url(#a)"/>
  <path class="arrow" d="M206 608 H236" marker-end="url(#a)"/>

  <rect class="box" x="240" y="524" width="364" height="56" rx="5"/>
  <g transform="translate(252,540)"><use href="#ic-fx"/></g>
  <text x="278" y="547" class="h">EvaluationWorker</text><text x="278" y="564" class="sub">규칙 판정 → 프롬프트 구성 → LLM 호출</text>

  <rect class="box" x="240" y="580" width="364" height="56" rx="5"/>
  <g transform="translate(252,596)"><use href="#ic-cube"/></g>
  <text x="278" y="603" class="h">BuildRunnerWorker</text><text x="278" y="620" class="sub">stage마다 격리 컨테이너 실행 → 채점</text>

  <!-- ══ 3b. SIMULATION ═════════════════════════════════════════════════ -->
  <rect class="panel" x="660" y="482" width="580" height="180" rx="6"/>
  <text x="676" y="504" class="player">시뮬레이션 엔진</text>
  <text x="796" y="504" class="sub">같은 인터페이스, 세션 단위로 구현 교체</text>

  <rect class="box" x="676" y="516" width="272" height="128" rx="5"/>
  <g transform="translate(688,532)"><use href="#ic-gear"/></g>
  <text x="714" y="539" class="h">규칙 기반 (기본)</text>
  <text x="688" y="566" class="sub">도메인별 순수 함수 7개</text>
  <text x="688" y="584" class="sub">지표 12종 · 대응 액션 21종</text>
  <text x="688" y="602" class="sub">결정론적 — 같은 입력이면 같은</text>
  <text x="688" y="620" class="sub">결과, 리플레이는 재계산</text>

  <rect class="box" x="964" y="516" width="260" height="128" rx="5"/>
  <g transform="translate(976,532)"><use href="#ic-chaos"/></g>
  <text x="1002" y="539" class="h">실제 인프라 (opt-in)</text>
  <text x="976" y="566" class="sub">coupon · notification 2개</text>
  <text x="976" y="584" class="sub">세션마다 전용 스키마 / 토픽</text>
  <text x="976" y="602" class="sub">실제 지연 주입 + 실제 부하로</text>
  <text x="976" y="620" class="sub">지표를 측정 (비재현적)</text>

  <path class="arrow" d="M422 662 V716" marker-end="url(#a)"/>
  <circle cx="383" cy="689" r="9" fill="#424a53"/><text x="383" y="693" font-size="11" font-weight="700" fill="#fff" text-anchor="middle">4</text>
  <rect x="396" y="680" width="142" height="18" fill="#fff"/>
  <text x="400" y="693" class="note">LLM 호출 · 채점 실행</text>

  <path class="arrow" d="M1094 662 V716" marker-end="url(#a)"/>
  <circle cx="1055" cy="689" r="9" fill="#424a53"/><text x="1055" y="693" font-size="11" font-weight="700" fill="#fff" text-anchor="middle">5</text>
  <rect x="1068" y="680" width="136" height="18" fill="#fff"/>
  <text x="1072" y="693" class="note">실측 부하 · 장애 주입</text>

  <path class="arrow-s" d="M820 662 V716" marker-end="url(#as)"/>
  <rect x="700" y="680" width="114" height="18" fill="#fff"/>
  <text x="704" y="693" class="sub">상태 저장 (TTL 6h)</text>

  <!-- ══ 4. DATA & EXTERNAL ═════════════════════════════════════════════ -->
  <rect class="panel" x="40" y="724" width="1200" height="142" rx="6"/>
  <text x="56" y="746" class="player">데이터 · 인프라 · 외부</text>
  <text x="212" y="746" class="sub">docker compose (로컬·CI 동일) + 일회성 컨테이너 + 외부 API</text>

  <rect class="box" x="56" y="756" width="280" height="46" rx="5"/>
  <g transform="translate(68,769)"><use href="#ic-db"/></g>
  <text x="94" y="783" class="h">PostgreSQL 16</text><text x="214" y="783" class="sub">테이블 29 · Flyway 44</text>

  <rect class="box" x="350" y="756" width="280" height="46" rx="5"/>
  <g transform="translate(362,769)"><use href="#ic-bolt"/></g>
  <text x="388" y="783" class="h">Redis 7</text><text x="454" y="783" class="sub">큐 · 세션 상태 · rate limit</text>

  <rect class="box" x="644" y="756" width="280" height="46" rx="5"/>
  <g transform="translate(656,769)"><use href="#ic-stream"/></g>
  <text x="682" y="783" class="h">Kafka 3.9</text><text x="758" y="783" class="sub">실제 인프라 알림 전용</text>

  <rect class="box" x="938" y="756" width="280" height="46" rx="5"/>
  <g transform="translate(950,769)"><use href="#ic-trace"/></g>
  <text x="976" y="783" class="h">Jaeger</text><text x="1034" y="783" class="sub">OTLP 분산 추적</text>

  <rect class="box" x="56" y="810" width="380" height="46" rx="5"/>
  <g transform="translate(68,823)"><use href="#ic-chaos"/></g>
  <text x="94" y="837" class="h">Toxiproxy + k6</text><text x="206" y="837" class="sub">DB 지연 주입 · 실제 부하 생성</text>

  <rect class="box" x="450" y="810" width="380" height="46" rx="5"/>
  <g transform="translate(462,823)"><use href="#ic-cube"/></g>
  <text x="488" y="837" class="h">Docker 채점 샌드박스</text><text x="640" y="837" class="sub">네트워크 차단 · 자원 제한</text>

  <rect class="box" x="844" y="810" width="374" height="46" rx="5"/>
  <g transform="translate(856,823)"><use href="#ic-fx"/></g>
  <text x="882" y="837" class="h">Anthropic Claude API</text><text x="1048" y="837" class="sub">5개 역할 프롬프트</text>
</svg>
